%TF.GenerationSoftware,KiCad,Pcbnew,9.0.5*%
%TF.CreationDate,2025-11-21T15:42:43-08:00*%
%TF.ProjectId,OpenAVNS KiCad Project,4f70656e-4156-44e5-9320-4b6943616420,rev?*%
%TF.SameCoordinates,Original*%
%TF.FileFunction,Paste,Top*%
%TF.FilePolarity,Positive*%
%FSLAX46Y46*%
G04 Gerber Fmt 4.6, Leading zero omitted, Abs format (unit mm)*
G04 Created by KiCad (PCBNEW 9.0.5) date 2025-11-21 15:42:43*
%MOMM*%
%LPD*%
G01*
G04 APERTURE LIST*
G04 Aperture macros list*
%AMRoundRect*
0 Rectangle with rounded corners*
0 $1 Rounding radius*
0 $2 $3 $4 $5 $6 $7 $8 $9 X,Y pos of 4 corners*
0 Add a 4 corners polygon primitive as box body*
4,1,4,$2,$3,$4,$5,$6,$7,$8,$9,$2,$3,0*
0 Add four circle primitives for the rounded corners*
1,1,$1+$1,$2,$3*
1,1,$1+$1,$4,$5*
1,1,$1+$1,$6,$7*
1,1,$1+$1,$8,$9*
0 Add four rect primitives between the rounded corners*
20,1,$1+$1,$2,$3,$4,$5,0*
20,1,$1+$1,$4,$5,$6,$7,0*
20,1,$1+$1,$6,$7,$8,$9,0*
20,1,$1+$1,$8,$9,$2,$3,0*%
G04 Aperture macros list end*
%ADD10C,0.010000*%
%ADD11RoundRect,0.250000X-0.475000X0.250000X-0.475000X-0.250000X0.475000X-0.250000X0.475000X0.250000X0*%
%ADD12RoundRect,0.135000X0.185000X-0.135000X0.185000X0.135000X-0.185000X0.135000X-0.185000X-0.135000X0*%
%ADD13RoundRect,0.140000X0.170000X-0.140000X0.170000X0.140000X-0.170000X0.140000X-0.170000X-0.140000X0*%
%ADD14R,1.170000X1.880000*%
%ADD15RoundRect,0.250000X0.475000X-0.250000X0.475000X0.250000X-0.475000X0.250000X-0.475000X-0.250000X0*%
%ADD16RoundRect,0.250000X0.250000X0.475000X-0.250000X0.475000X-0.250000X-0.475000X0.250000X-0.475000X0*%
%ADD17RoundRect,0.147500X0.172500X-0.147500X0.172500X0.147500X-0.172500X0.147500X-0.172500X-0.147500X0*%
%ADD18RoundRect,0.140000X-0.170000X0.140000X-0.170000X-0.140000X0.170000X-0.140000X0.170000X0.140000X0*%
%ADD19R,0.300000X0.300000*%
%ADD20RoundRect,0.237500X0.237500X-0.250000X0.237500X0.250000X-0.237500X0.250000X-0.237500X-0.250000X0*%
%ADD21RoundRect,0.140000X-0.140000X-0.170000X0.140000X-0.170000X0.140000X0.170000X-0.140000X0.170000X0*%
%ADD22R,0.600000X1.550000*%
%ADD23R,3.100000X2.600000*%
%ADD24RoundRect,0.225000X-0.250000X0.225000X-0.250000X-0.225000X0.250000X-0.225000X0.250000X0.225000X0*%
%ADD25RoundRect,0.135000X-0.185000X0.135000X-0.185000X-0.135000X0.185000X-0.135000X0.185000X0.135000X0*%
%ADD26RoundRect,0.175000X-0.325000X0.175000X-0.325000X-0.175000X0.325000X-0.175000X0.325000X0.175000X0*%
%ADD27RoundRect,0.150000X-0.150000X0.200000X-0.150000X-0.200000X0.150000X-0.200000X0.150000X0.200000X0*%
%ADD28RoundRect,0.250001X-0.462499X-0.849999X0.462499X-0.849999X0.462499X0.849999X-0.462499X0.849999X0*%
%ADD29RoundRect,0.175000X0.175000X0.325000X-0.175000X0.325000X-0.175000X-0.325000X0.175000X-0.325000X0*%
%ADD30RoundRect,0.150000X0.200000X0.150000X-0.200000X0.150000X-0.200000X-0.150000X0.200000X-0.150000X0*%
%ADD31RoundRect,0.225000X-0.225000X-0.250000X0.225000X-0.250000X0.225000X0.250000X-0.225000X0.250000X0*%
%ADD32RoundRect,0.237500X-0.237500X0.250000X-0.237500X-0.250000X0.237500X-0.250000X0.237500X0.250000X0*%
%ADD33RoundRect,0.135000X0.135000X0.185000X-0.135000X0.185000X-0.135000X-0.185000X0.135000X-0.185000X0*%
%ADD34RoundRect,0.225000X-0.225000X-0.375000X0.225000X-0.375000X0.225000X0.375000X-0.225000X0.375000X0*%
%ADD35RoundRect,0.150000X0.150000X-0.587500X0.150000X0.587500X-0.150000X0.587500X-0.150000X-0.587500X0*%
%ADD36RoundRect,0.150000X-0.512500X-0.150000X0.512500X-0.150000X0.512500X0.150000X-0.512500X0.150000X0*%
%ADD37R,2.000000X2.000000*%
%ADD38C,0.250000*%
%ADD39RoundRect,0.135000X-0.135000X-0.185000X0.135000X-0.185000X0.135000X0.185000X-0.135000X0.185000X0*%
%ADD40RoundRect,0.250000X-0.650000X1.000000X-0.650000X-1.000000X0.650000X-1.000000X0.650000X1.000000X0*%
%ADD41R,2.200000X1.500000*%
%ADD42R,2.800000X2.200000*%
%ADD43R,2.800000X2.800000*%
%ADD44RoundRect,0.225000X0.250000X-0.225000X0.250000X0.225000X-0.250000X0.225000X-0.250000X-0.225000X0*%
%ADD45R,0.230000X0.230000*%
%ADD46O,0.230000X0.800000*%
%ADD47R,1.050000X0.680000*%
%ADD48R,0.500000X0.260000*%
%ADD49RoundRect,0.050000X-0.250000X0.100000X-0.250000X-0.100000X0.250000X-0.100000X0.250000X0.100000X0*%
%ADD50RoundRect,0.250000X1.100000X-0.325000X1.100000X0.325000X-1.100000X0.325000X-1.100000X-0.325000X0*%
%ADD51RoundRect,0.250000X-0.625000X0.312500X-0.625000X-0.312500X0.625000X-0.312500X0.625000X0.312500X0*%
%ADD52R,0.300000X1.600000*%
%ADD53RoundRect,0.043500X0.941500X0.246500X-0.941500X0.246500X-0.941500X-0.246500X0.941500X-0.246500X0*%
%ADD54RoundRect,0.225000X0.375000X-0.225000X0.375000X0.225000X-0.375000X0.225000X-0.375000X-0.225000X0*%
%ADD55RoundRect,0.225000X0.225000X0.375000X-0.225000X0.375000X-0.225000X-0.375000X0.225000X-0.375000X0*%
%ADD56RoundRect,0.033750X0.101250X-0.346250X0.101250X0.346250X-0.101250X0.346250X-0.101250X-0.346250X0*%
%ADD57RoundRect,0.027500X0.082500X-0.352500X0.082500X0.352500X-0.082500X0.352500X-0.082500X-0.352500X0*%
%ADD58RoundRect,0.040000X0.365000X-0.120000X0.365000X0.120000X-0.365000X0.120000X-0.365000X-0.120000X0*%
%ADD59R,0.740000X2.400000*%
%ADD60RoundRect,0.147500X-0.147500X-0.172500X0.147500X-0.172500X0.147500X0.172500X-0.147500X0.172500X0*%
%ADD61RoundRect,0.250000X-0.250000X-0.475000X0.250000X-0.475000X0.250000X0.475000X-0.250000X0.475000X0*%
%ADD62RoundRect,0.150000X0.512500X0.150000X-0.512500X0.150000X-0.512500X-0.150000X0.512500X-0.150000X0*%
%ADD63RoundRect,0.200000X0.275000X-0.200000X0.275000X0.200000X-0.275000X0.200000X-0.275000X-0.200000X0*%
%ADD64RoundRect,0.250000X-0.325000X-1.100000X0.325000X-1.100000X0.325000X1.100000X-0.325000X1.100000X0*%
%ADD65RoundRect,0.225000X-0.375000X0.225000X-0.375000X-0.225000X0.375000X-0.225000X0.375000X0.225000X0*%
%ADD66R,0.558800X1.270000*%
%ADD67RoundRect,0.250000X0.312500X0.625000X-0.312500X0.625000X-0.312500X-0.625000X0.312500X-0.625000X0*%
%ADD68RoundRect,0.250000X0.325000X1.100000X-0.325000X1.100000X-0.325000X-1.100000X0.325000X-1.100000X0*%
%ADD69RoundRect,0.250000X0.650000X-1.000000X0.650000X1.000000X-0.650000X1.000000X-0.650000X-1.000000X0*%
%ADD70RoundRect,0.250000X-0.350000X0.450000X-0.350000X-0.450000X0.350000X-0.450000X0.350000X0.450000X0*%
%ADD71R,0.375000X0.350000*%
%ADD72R,0.350000X0.375000*%
%ADD73RoundRect,0.140000X0.140000X0.170000X-0.140000X0.170000X-0.140000X-0.170000X0.140000X-0.170000X0*%
%ADD74RoundRect,0.147500X0.147500X0.172500X-0.147500X0.172500X-0.147500X-0.172500X0.147500X-0.172500X0*%
%ADD75R,2.000000X1.000000*%
%ADD76R,0.800000X2.800000*%
%ADD77RoundRect,0.225000X0.225000X0.250000X-0.225000X0.250000X-0.225000X-0.250000X0.225000X-0.250000X0*%
%ADD78RoundRect,0.237500X0.250000X0.237500X-0.250000X0.237500X-0.250000X-0.237500X0.250000X-0.237500X0*%
%ADD79RoundRect,0.250000X-1.000000X0.375000X-1.000000X-0.375000X1.000000X-0.375000X1.000000X0.375000X0*%
%ADD80RoundRect,0.237500X-0.250000X-0.237500X0.250000X-0.237500X0.250000X0.237500X-0.250000X0.237500X0*%
%ADD81RoundRect,0.250000X0.350000X0.450000X-0.350000X0.450000X-0.350000X-0.450000X0.350000X-0.450000X0*%
%ADD82RoundRect,0.250000X-0.525000X-0.250000X0.525000X-0.250000X0.525000X0.250000X-0.525000X0.250000X0*%
%ADD83RoundRect,0.050000X-0.387500X-0.050000X0.387500X-0.050000X0.387500X0.050000X-0.387500X0.050000X0*%
%ADD84RoundRect,0.050000X-0.050000X-0.387500X0.050000X-0.387500X0.050000X0.387500X-0.050000X0.387500X0*%
%ADD85RoundRect,0.250000X-0.312500X-0.625000X0.312500X-0.625000X0.312500X0.625000X-0.312500X0.625000X0*%
%ADD86R,0.300000X0.700000*%
%ADD87RoundRect,0.150000X-0.587500X-0.150000X0.587500X-0.150000X0.587500X0.150000X-0.587500X0.150000X0*%
%ADD88RoundRect,0.250000X0.450000X-0.350000X0.450000X0.350000X-0.450000X0.350000X-0.450000X-0.350000X0*%
G04 APERTURE END LIST*
D10*
%TO.C,U16*%
X66498823Y-122627174D02*
X65748823Y-122627174D01*
X65748823Y-121377174D01*
X66498823Y-121377174D01*
X66498823Y-122627174D01*
G36*
X66498823Y-122627174D02*
G01*
X65748823Y-122627174D01*
X65748823Y-121377174D01*
X66498823Y-121377174D01*
X66498823Y-122627174D01*
G37*
X66498823Y-124137174D02*
X65748823Y-124137174D01*
X65748823Y-122887174D01*
X66498823Y-122887174D01*
X66498823Y-124137174D01*
G36*
X66498823Y-124137174D02*
G01*
X65748823Y-124137174D01*
X65748823Y-122887174D01*
X66498823Y-122887174D01*
X66498823Y-124137174D01*
G37*
X67508823Y-122627174D02*
X66758823Y-122627174D01*
X66758823Y-121377174D01*
X67508823Y-121377174D01*
X67508823Y-122627174D01*
G36*
X67508823Y-122627174D02*
G01*
X66758823Y-122627174D01*
X66758823Y-121377174D01*
X67508823Y-121377174D01*
X67508823Y-122627174D01*
G37*
X67508823Y-124137174D02*
X66758823Y-124137174D01*
X66758823Y-122887174D01*
X67508823Y-122887174D01*
X67508823Y-124137174D01*
G36*
X67508823Y-124137174D02*
G01*
X66758823Y-124137174D01*
X66758823Y-122887174D01*
X67508823Y-122887174D01*
X67508823Y-124137174D01*
G37*
%TD*%
D11*
%TO.C,C44*%
X94726362Y-105384988D03*
X94726362Y-107284988D03*
%TD*%
D12*
%TO.C,R68*%
X70965926Y-141235115D03*
X70965926Y-140215115D03*
%TD*%
D13*
%TO.C,C27*%
X96850078Y-116050000D03*
X96850078Y-115090000D03*
%TD*%
D14*
%TO.C,T1*%
X76120000Y-118670000D03*
X73620000Y-118670000D03*
X71120000Y-118670000D03*
X68620000Y-118670000D03*
X66120000Y-118670000D03*
X66120000Y-102310000D03*
X68620000Y-102310000D03*
X71120000Y-102310000D03*
X73620000Y-102310000D03*
X76120000Y-102310000D03*
%TD*%
D11*
%TO.C,R2*%
X79374630Y-69298877D03*
X79374630Y-71198877D03*
%TD*%
D15*
%TO.C,R27*%
X113718584Y-70659998D03*
X113718584Y-68759998D03*
%TD*%
D16*
%TO.C,C39*%
X98420000Y-96520000D03*
X96520000Y-96520000D03*
%TD*%
D17*
%TO.C,D14*%
X65340370Y-137109108D03*
X65340370Y-136139108D03*
%TD*%
D18*
%TO.C,R3*%
X83083273Y-71764603D03*
X83083273Y-72724603D03*
%TD*%
D19*
%TO.C,U1*%
X92634921Y-74148802D03*
X92634921Y-73648802D03*
X92634921Y-73148802D03*
X92134921Y-74148802D03*
X92134921Y-73648802D03*
X92134921Y-73148802D03*
%TD*%
D20*
%TO.C,R52*%
X90170000Y-105965000D03*
X90170000Y-104140000D03*
%TD*%
D21*
%TO.C,C24*%
X101562537Y-71401400D03*
X102522537Y-71401400D03*
%TD*%
D13*
%TO.C,R10*%
X73826404Y-71015319D03*
X73826404Y-70055319D03*
%TD*%
D22*
%TO.C,U12*%
X123225000Y-74100000D03*
X121955000Y-74100000D03*
X120685000Y-74100000D03*
X119415000Y-74100000D03*
X119415000Y-79500000D03*
X120685000Y-79500000D03*
X121955000Y-79500000D03*
X123225000Y-79500000D03*
D23*
X121320000Y-76800000D03*
%TD*%
D24*
%TO.C,C33*%
X82333724Y-137794439D03*
X82333724Y-139344439D03*
%TD*%
D18*
%TO.C,C22*%
X101971948Y-81565381D03*
X101971948Y-82525381D03*
%TD*%
D25*
%TO.C,R21*%
X83328424Y-50946182D03*
X83328424Y-51966182D03*
%TD*%
D21*
%TO.C,C4*%
X116058917Y-128268877D03*
X117018917Y-128268877D03*
%TD*%
D13*
%TO.C,C13*%
X80132178Y-57097414D03*
X80132178Y-56137414D03*
%TD*%
D26*
%TO.C,Q1*%
X81110653Y-65917812D03*
D27*
X79410653Y-65917812D03*
X79410653Y-67917812D03*
X81310653Y-67917812D03*
%TD*%
D28*
%TO.C,L2*%
X76072468Y-135716368D03*
X78397468Y-135716368D03*
%TD*%
D16*
%TO.C,C36*%
X101848364Y-96538716D03*
X99948364Y-96538716D03*
%TD*%
D19*
%TO.C,U8*%
X99504921Y-73898802D03*
X100004921Y-73898802D03*
X100504921Y-73898802D03*
X99504921Y-73398802D03*
X100004921Y-73398802D03*
X100504921Y-73398802D03*
%TD*%
D20*
%TO.C,R54*%
X71120000Y-127912500D03*
X71120000Y-126087500D03*
%TD*%
D29*
%TO.C,Q4*%
X73669282Y-65782021D03*
D30*
X73669282Y-64082021D03*
X71669282Y-64082021D03*
X71669282Y-65982021D03*
%TD*%
D11*
%TO.C,R20*%
X106417316Y-66929159D03*
X106417316Y-68829159D03*
%TD*%
%TO.C,C43*%
X90960134Y-96294732D03*
X90960134Y-98194732D03*
%TD*%
D13*
%TO.C,R31*%
X100760261Y-68531509D03*
X100760261Y-67571509D03*
%TD*%
D31*
%TO.C,C47*%
X65100222Y-128170498D03*
X66650222Y-128170498D03*
%TD*%
D11*
%TO.C,C34*%
X84076050Y-137394623D03*
X84076050Y-139294623D03*
%TD*%
D15*
%TO.C,C48*%
X97710712Y-128470828D03*
X97710712Y-126570828D03*
%TD*%
D32*
%TO.C,R49*%
X85090000Y-91797500D03*
X85090000Y-93622500D03*
%TD*%
D11*
%TO.C,R28*%
X104329162Y-66860323D03*
X104329162Y-68760323D03*
%TD*%
D21*
%TO.C,R30*%
X99359817Y-75572566D03*
X100319817Y-75572566D03*
%TD*%
%TO.C,R4*%
X92925497Y-76344067D03*
X93885497Y-76344067D03*
%TD*%
D31*
%TO.C,C46*%
X72055182Y-123027832D03*
X73605182Y-123027832D03*
%TD*%
D33*
%TO.C,R34*%
X115387061Y-116780528D03*
X114367061Y-116780528D03*
%TD*%
D25*
%TO.C,R41*%
X117640217Y-117166167D03*
X117640217Y-118186167D03*
%TD*%
D34*
%TO.C,D10*%
X93147818Y-94341436D03*
X96447818Y-94341436D03*
%TD*%
D12*
%TO.C,R25*%
X109220000Y-137670000D03*
X109220000Y-136650000D03*
%TD*%
D35*
%TO.C,Q2*%
X83122064Y-70292824D03*
X85022064Y-70292824D03*
X84072064Y-68417824D03*
%TD*%
D36*
%TO.C,U7*%
X105410000Y-72390000D03*
X105410000Y-73340000D03*
X105410000Y-74290000D03*
X107685000Y-74290000D03*
X107685000Y-73340000D03*
X107685000Y-72390000D03*
%TD*%
D37*
%TO.C,U5*%
X109277500Y-129597500D03*
X109277500Y-132022500D03*
X111702500Y-129597500D03*
X111702500Y-132022500D03*
D38*
X109240000Y-127560000D03*
X109740000Y-127560000D03*
X110240000Y-127560000D03*
X110740000Y-127560000D03*
X111240000Y-127560000D03*
X111740000Y-127560000D03*
X112240000Y-127560000D03*
X112740000Y-127560000D03*
X113240000Y-127560000D03*
X113740000Y-133060000D03*
X107740000Y-133310000D03*
X108490000Y-133560000D03*
X109490000Y-133560000D03*
X109990000Y-133560000D03*
X110490000Y-133560000D03*
X110990000Y-133560000D03*
X111490000Y-133560000D03*
X111990000Y-133560000D03*
X112490000Y-133560000D03*
X113740000Y-133560000D03*
X107740000Y-134060000D03*
X108240000Y-134060000D03*
X108740000Y-134060000D03*
X109240000Y-134060000D03*
X109740000Y-134060000D03*
X110240000Y-134060000D03*
X110740000Y-134060000D03*
X111240000Y-134060000D03*
X111740000Y-134060000D03*
X112240000Y-134060000D03*
X112740000Y-134060000D03*
X113240000Y-134060000D03*
X107240000Y-128060000D03*
X107990000Y-128060000D03*
X108490000Y-128060000D03*
X108990000Y-128060000D03*
X109490000Y-128060000D03*
X109990000Y-128060000D03*
X110490000Y-128060000D03*
X110990000Y-128060000D03*
X111490000Y-128060000D03*
X111990000Y-128060000D03*
X113740000Y-128060000D03*
X107240000Y-128560000D03*
X107740000Y-128810000D03*
X113240000Y-128810000D03*
X113740000Y-129060000D03*
X107740000Y-129310000D03*
X113240000Y-129310000D03*
X107240000Y-129560000D03*
X107740000Y-129810000D03*
X113240000Y-129810000D03*
X107240000Y-130060000D03*
X113740000Y-130060000D03*
X107740000Y-130310000D03*
X107240000Y-130560000D03*
X113740000Y-130560000D03*
X107740000Y-130810000D03*
X107240000Y-131060000D03*
X113740000Y-131060000D03*
X107740000Y-131310000D03*
X113240000Y-131310000D03*
X107240000Y-131560000D03*
X113740000Y-131560000D03*
X107740000Y-131810000D03*
X113240000Y-131810000D03*
X107240000Y-132060000D03*
X113740000Y-132060000D03*
X113240000Y-132310000D03*
X107240000Y-132560000D03*
X113740000Y-132560000D03*
X107740000Y-132810000D03*
X113240000Y-132810000D03*
%TD*%
D12*
%TO.C,R45*%
X117748160Y-114167221D03*
X117748160Y-113147221D03*
%TD*%
D39*
%TO.C,R37*%
X88900000Y-139700000D03*
X89920000Y-139700000D03*
%TD*%
D40*
%TO.C,D4*%
X111760000Y-103950000D03*
X111760000Y-107950000D03*
%TD*%
D35*
%TO.C,Q7*%
X100851468Y-66127964D03*
X102751468Y-66127964D03*
X101801468Y-64252964D03*
%TD*%
%TO.C,Q6*%
X110250317Y-67988366D03*
X112150317Y-67988366D03*
X111200317Y-66113366D03*
%TD*%
D26*
%TO.C,Q8*%
X98784921Y-63528802D03*
D27*
X97084921Y-63528802D03*
X97084921Y-65528802D03*
X98984921Y-65528802D03*
%TD*%
D11*
%TO.C,R19*%
X108383691Y-66887846D03*
X108383691Y-68787846D03*
%TD*%
D12*
%TO.C,R59*%
X92240758Y-106137643D03*
X92240758Y-105117643D03*
%TD*%
D41*
%TO.C,L3*%
X99678103Y-105000905D03*
X99678103Y-98600905D03*
%TD*%
D42*
%TO.C,J2*%
X93870000Y-52320000D03*
X86470000Y-50320000D03*
D43*
X86470000Y-59720000D03*
%TD*%
D44*
%TO.C,C28*%
X95611107Y-116931902D03*
X95611107Y-115381902D03*
%TD*%
D39*
%TO.C,R63*%
X94040553Y-124277014D03*
X95060553Y-124277014D03*
%TD*%
D33*
%TO.C,R64*%
X64104688Y-138443242D03*
X63084688Y-138443242D03*
%TD*%
D45*
%TO.C,U14*%
X80375000Y-137490000D03*
D46*
X80375000Y-137775000D03*
D45*
X79875000Y-137490000D03*
D46*
X79875000Y-137775000D03*
D45*
X79375000Y-137490000D03*
D46*
X79375000Y-137775000D03*
D45*
X78875000Y-137490000D03*
D46*
X78875000Y-137775000D03*
D45*
X78375000Y-137490000D03*
D46*
X78375000Y-137775000D03*
X78375000Y-140725000D03*
D45*
X78375000Y-141010000D03*
D46*
X78875000Y-140725000D03*
D45*
X78875000Y-141010000D03*
D46*
X79375000Y-140725000D03*
D45*
X79375000Y-141010000D03*
D46*
X79875000Y-140725000D03*
D45*
X79875000Y-141010000D03*
D46*
X80375000Y-140725000D03*
D45*
X80375000Y-141010000D03*
D47*
X80010000Y-138800000D03*
X78740000Y-138800000D03*
D48*
X81005000Y-139000000D03*
X77745000Y-139000000D03*
X81005000Y-139500000D03*
X77745000Y-139500000D03*
D47*
X80010000Y-139700000D03*
X78740000Y-139700000D03*
%TD*%
D49*
%TO.C,D3*%
X95915297Y-129404936D03*
X95915297Y-130104936D03*
%TD*%
D31*
%TO.C,C31*%
X76867581Y-142168871D03*
X78417581Y-142168871D03*
%TD*%
D50*
%TO.C,C45*%
X90805193Y-94675027D03*
X90805193Y-91725027D03*
%TD*%
D15*
%TO.C,C49*%
X91549372Y-128422122D03*
X91549372Y-126522122D03*
%TD*%
D51*
%TO.C,R38*%
X111775540Y-110270260D03*
X111775540Y-113195260D03*
%TD*%
D32*
%TO.C,R53*%
X61287493Y-81305552D03*
X61287493Y-83130552D03*
%TD*%
D52*
%TO.C,U13*%
X97065141Y-120979446D03*
X97715141Y-120979446D03*
X98365141Y-120979446D03*
X99015141Y-120979446D03*
X99015141Y-117579446D03*
X98365141Y-117579446D03*
X97715141Y-117579446D03*
X97065141Y-117579446D03*
%TD*%
D53*
%TO.C,U16*%
X69098823Y-124662174D03*
X69098823Y-123392174D03*
X69098823Y-122122174D03*
X69098823Y-120852174D03*
X64158823Y-120852174D03*
X64158823Y-122122174D03*
X64158823Y-123392174D03*
X64158823Y-124662174D03*
%TD*%
D54*
%TO.C,D7*%
X100136735Y-94735997D03*
X100136735Y-91435997D03*
%TD*%
D55*
%TO.C,D12*%
X96424692Y-92051029D03*
X93124692Y-92051029D03*
%TD*%
D56*
%TO.C,U10*%
X114820000Y-119370000D03*
D57*
X115320000Y-119370000D03*
X115820000Y-119370000D03*
D56*
X116320000Y-119370000D03*
D58*
X116515000Y-118650000D03*
D56*
X116320000Y-117930000D03*
D57*
X115820000Y-117930000D03*
X115320000Y-117930000D03*
D56*
X114820000Y-117930000D03*
D58*
X114625000Y-118650000D03*
%TD*%
D59*
%TO.C,J1*%
X114300000Y-142920000D03*
X114300000Y-139020000D03*
X115570000Y-142920000D03*
X115570000Y-139020000D03*
X116840000Y-142920000D03*
X116840000Y-139020000D03*
X118110000Y-142920000D03*
X118110000Y-139020000D03*
X119380000Y-142920000D03*
X119380000Y-139020000D03*
%TD*%
D15*
%TO.C,R32*%
X99280828Y-68809253D03*
X99280828Y-66909253D03*
%TD*%
D12*
%TO.C,R48*%
X82070109Y-143436579D03*
X82070109Y-142416579D03*
%TD*%
D18*
%TO.C,C14*%
X119010284Y-123787565D03*
X119010284Y-124747565D03*
%TD*%
D25*
%TO.C,R13*%
X111174439Y-135778405D03*
X111174439Y-136798405D03*
%TD*%
D60*
%TO.C,L5*%
X124552038Y-133030853D03*
X125522038Y-133030853D03*
%TD*%
D61*
%TO.C,C42*%
X71136999Y-121298503D03*
X73036999Y-121298503D03*
%TD*%
D22*
%TO.C,U9*%
X115605000Y-74100000D03*
X114335000Y-74100000D03*
X113065000Y-74100000D03*
X111795000Y-74100000D03*
X111795000Y-79500000D03*
X113065000Y-79500000D03*
X114335000Y-79500000D03*
X115605000Y-79500000D03*
D23*
X113700000Y-76800000D03*
%TD*%
D18*
%TO.C,R22*%
X110154655Y-69418565D03*
X110154655Y-70378565D03*
%TD*%
D62*
%TO.C,U3*%
X84957500Y-77150000D03*
X84957500Y-76200000D03*
X84957500Y-75250000D03*
X82682500Y-75250000D03*
X82682500Y-76200000D03*
X82682500Y-77150000D03*
%TD*%
D11*
%TO.C,R1*%
X81386281Y-69293423D03*
X81386281Y-71193423D03*
%TD*%
D18*
%TO.C,C21*%
X114565349Y-123690028D03*
X114565349Y-124650028D03*
%TD*%
D63*
%TO.C,R57*%
X92710946Y-97839578D03*
X92710946Y-96189578D03*
%TD*%
D60*
%TO.C,D13*%
X96198974Y-123494357D03*
X97168974Y-123494357D03*
%TD*%
D12*
%TO.C,R65*%
X65326370Y-139031942D03*
X65326370Y-138011942D03*
%TD*%
D18*
%TO.C,C11*%
X118401455Y-128563230D03*
X118401455Y-129523230D03*
%TD*%
D31*
%TO.C,C29*%
X120693291Y-117693952D03*
X122243291Y-117693952D03*
%TD*%
D32*
%TO.C,R55*%
X95250000Y-85447500D03*
X95250000Y-87272500D03*
%TD*%
D11*
%TO.C,C32*%
X76101401Y-137876640D03*
X76101401Y-139776640D03*
%TD*%
D36*
%TO.C,U17*%
X93502871Y-125566727D03*
X93502871Y-126516727D03*
X93502871Y-127466727D03*
X95777871Y-127466727D03*
X95777871Y-125566727D03*
%TD*%
D64*
%TO.C,C12*%
X79981893Y-59237539D03*
X82931893Y-59237539D03*
%TD*%
D65*
%TO.C,D8*%
X102476013Y-91459867D03*
X102476013Y-94759867D03*
%TD*%
D25*
%TO.C,R12*%
X110207370Y-135781810D03*
X110207370Y-136801810D03*
%TD*%
D35*
%TO.C,Q3*%
X73925569Y-68586599D03*
X75825569Y-68586599D03*
X74875569Y-66711599D03*
%TD*%
D66*
%TO.C,U15*%
X94091066Y-100821409D03*
X93151266Y-100821409D03*
X92211466Y-100821409D03*
X92211466Y-103412209D03*
X94091066Y-103412209D03*
%TD*%
D67*
%TO.C,R40*%
X112045411Y-115166953D03*
X109120411Y-115166953D03*
%TD*%
D68*
%TO.C,C17*%
X99815685Y-52510550D03*
X96865685Y-52510550D03*
%TD*%
D33*
%TO.C,R58*%
X72778283Y-124256942D03*
X71758283Y-124256942D03*
%TD*%
D39*
%TO.C,R36*%
X89660000Y-134620000D03*
X90680000Y-134620000D03*
%TD*%
D12*
%TO.C,R39*%
X113451043Y-114562626D03*
X113451043Y-113542626D03*
%TD*%
D69*
%TO.C,D11*%
X76306337Y-99020133D03*
X76306337Y-95020133D03*
%TD*%
D39*
%TO.C,R50*%
X79547827Y-143424866D03*
X80567827Y-143424866D03*
%TD*%
D17*
%TO.C,L4*%
X125730000Y-135105000D03*
X125730000Y-134135000D03*
%TD*%
D64*
%TO.C,C35*%
X99831374Y-89075806D03*
X102781374Y-89075806D03*
%TD*%
D19*
%TO.C,U6*%
X99754921Y-80768802D03*
X99754921Y-81268802D03*
X99754921Y-81768802D03*
X100254921Y-80768802D03*
X100254921Y-81268802D03*
X100254921Y-81768802D03*
%TD*%
D31*
%TO.C,C5*%
X106663397Y-125531074D03*
X108213397Y-125531074D03*
%TD*%
D39*
%TO.C,R47*%
X77669471Y-143409633D03*
X78689471Y-143409633D03*
%TD*%
D63*
%TO.C,R62*%
X94208972Y-98939136D03*
X94208972Y-97289136D03*
%TD*%
D70*
%TO.C,Y1*%
X115940572Y-123142632D03*
X115940572Y-125342632D03*
X117640572Y-125342632D03*
X117640572Y-123142632D03*
%TD*%
D15*
%TO.C,R6*%
X86607788Y-72930874D03*
X86607788Y-71030874D03*
%TD*%
D32*
%TO.C,R60*%
X80469685Y-81364050D03*
X80469685Y-83189050D03*
%TD*%
D13*
%TO.C,R8*%
X75934907Y-70999466D03*
X75934907Y-70039466D03*
%TD*%
D71*
%TO.C,U11*%
X103736827Y-113030000D03*
X103736827Y-112530000D03*
X103736827Y-112030000D03*
X103736827Y-111530000D03*
D72*
X103224327Y-111517500D03*
X102724327Y-111517500D03*
D71*
X102211827Y-111530000D03*
X102211827Y-112030000D03*
X102211827Y-112530000D03*
X102211827Y-113030000D03*
D72*
X102724327Y-113042500D03*
X103224327Y-113042500D03*
%TD*%
D26*
%TO.C,Q5*%
X108402395Y-63510357D03*
D27*
X106702395Y-63510357D03*
X106702395Y-65510357D03*
X108602395Y-65510357D03*
%TD*%
D73*
%TO.C,C7*%
X105547136Y-128664026D03*
X104587136Y-128664026D03*
%TD*%
D13*
%TO.C,R29*%
X102858687Y-68523777D03*
X102858687Y-67563777D03*
%TD*%
D21*
%TO.C,C25*%
X102014327Y-117458592D03*
X102974327Y-117458592D03*
%TD*%
D74*
%TO.C,L1*%
X120325278Y-129517018D03*
X119355278Y-129517018D03*
%TD*%
D40*
%TO.C,D9*%
X66040000Y-95060000D03*
X66040000Y-99060000D03*
%TD*%
D18*
%TO.C,C10*%
X121276624Y-128586861D03*
X121276624Y-129546861D03*
%TD*%
D75*
%TO.C,AT1*%
X125835000Y-137470000D03*
X125835000Y-144470000D03*
D76*
X125020000Y-140970000D03*
X126650000Y-140970000D03*
%TD*%
D51*
%TO.C,R44*%
X119393224Y-110298545D03*
X119393224Y-113223545D03*
%TD*%
D64*
%TO.C,C40*%
X73283300Y-91836009D03*
X76233300Y-91836009D03*
%TD*%
D77*
%TO.C,C8*%
X105233568Y-133551013D03*
X103683568Y-133551013D03*
%TD*%
D78*
%TO.C,R14*%
X78416325Y-58486990D03*
X76591325Y-58486990D03*
%TD*%
D11*
%TO.C,R7*%
X77394921Y-69338802D03*
X77394921Y-71238802D03*
%TD*%
D61*
%TO.C,R16*%
X68366177Y-64313217D03*
X70266177Y-64313217D03*
%TD*%
D39*
%TO.C,R35*%
X113400410Y-115506319D03*
X114420410Y-115506319D03*
%TD*%
D12*
%TO.C,R51*%
X82068070Y-141539660D03*
X82068070Y-140519660D03*
%TD*%
D40*
%TO.C,D6*%
X119380000Y-103950000D03*
X119380000Y-107950000D03*
%TD*%
D13*
%TO.C,R5*%
X85086846Y-72724603D03*
X85086846Y-71764603D03*
%TD*%
D21*
%TO.C,C3*%
X115467596Y-131153623D03*
X116427596Y-131153623D03*
%TD*%
D12*
%TO.C,R43*%
X97790000Y-116080000D03*
X97790000Y-115060000D03*
%TD*%
D21*
%TO.C,C2*%
X90861774Y-81424029D03*
X91821774Y-81424029D03*
%TD*%
D15*
%TO.C,R33*%
X97276254Y-68834627D03*
X97276254Y-66934627D03*
%TD*%
D21*
%TO.C,C30*%
X120430490Y-118939133D03*
X121390490Y-118939133D03*
%TD*%
D79*
%TO.C,SW1*%
X62440000Y-130850000D03*
X62440000Y-133350000D03*
X62440000Y-135850000D03*
%TD*%
D13*
%TO.C,C9*%
X90405669Y-74843267D03*
X90405669Y-73883267D03*
%TD*%
D80*
%TO.C,R17*%
X101442744Y-51807690D03*
X103267744Y-51807690D03*
%TD*%
D18*
%TO.C,C19*%
X88872895Y-76429286D03*
X88872895Y-77389286D03*
%TD*%
D80*
%TO.C,R18*%
X101440660Y-53305514D03*
X103265660Y-53305514D03*
%TD*%
D61*
%TO.C,R15*%
X68380042Y-66332470D03*
X70280042Y-66332470D03*
%TD*%
D44*
%TO.C,C1*%
X109667553Y-125577521D03*
X109667553Y-124027521D03*
%TD*%
D12*
%TO.C,R26*%
X108240999Y-137683411D03*
X108240999Y-136663411D03*
%TD*%
D50*
%TO.C,C23*%
X81204921Y-54303802D03*
X81204921Y-51353802D03*
%TD*%
D18*
%TO.C,C20*%
X99978278Y-57282007D03*
X99978278Y-58242007D03*
%TD*%
D31*
%TO.C,C26*%
X102199327Y-118728592D03*
X103749327Y-118728592D03*
%TD*%
D73*
%TO.C,R9*%
X93879588Y-77276974D03*
X92919588Y-77276974D03*
%TD*%
D64*
%TO.C,C15*%
X88414921Y-65528802D03*
X91364921Y-65528802D03*
%TD*%
D73*
%TO.C,R23*%
X100409827Y-77466760D03*
X99449827Y-77466760D03*
%TD*%
D40*
%TO.C,D1*%
X77848710Y-52112694D03*
X77848710Y-56112694D03*
%TD*%
D81*
%TO.C,R61*%
X66490995Y-126491373D03*
X64490995Y-126491373D03*
%TD*%
D82*
%TO.C,S1*%
X92625000Y-110160000D03*
X97875000Y-110160000D03*
X92625000Y-113360000D03*
X97875000Y-113360000D03*
%TD*%
D64*
%TO.C,C37*%
X66011126Y-91872010D03*
X68961126Y-91872010D03*
%TD*%
D19*
%TO.C,U4*%
X92634921Y-79248802D03*
X92134921Y-79248802D03*
X91634921Y-79248802D03*
X92634921Y-79748802D03*
X92134921Y-79748802D03*
X91634921Y-79748802D03*
%TD*%
D24*
%TO.C,C18*%
X87630000Y-76695000D03*
X87630000Y-78245000D03*
%TD*%
D83*
%TO.C,U2*%
X95839921Y-76158802D03*
X95839921Y-76558802D03*
X95839921Y-76958802D03*
X95839921Y-77358802D03*
X95839921Y-77758802D03*
D84*
X96577421Y-77896302D03*
X96977421Y-77896302D03*
D83*
X97714921Y-77758802D03*
X97714921Y-77358802D03*
X97714921Y-76958802D03*
X97714921Y-76558802D03*
X97714921Y-76158802D03*
D84*
X96977421Y-76021302D03*
X96577421Y-76021302D03*
%TD*%
D24*
%TO.C,C6*%
X106919482Y-136046566D03*
X106919482Y-137596566D03*
%TD*%
D78*
%TO.C,R11*%
X78408963Y-59976925D03*
X76583963Y-59976925D03*
%TD*%
D33*
%TO.C,R42*%
X117746460Y-115099285D03*
X116726460Y-115099285D03*
%TD*%
D85*
%TO.C,R46*%
X119200862Y-115216297D03*
X122125862Y-115216297D03*
%TD*%
D12*
%TO.C,R67*%
X70984987Y-139352175D03*
X70984987Y-138332175D03*
%TD*%
D86*
%TO.C,J3*%
X93770000Y-135950000D03*
X94270000Y-135950000D03*
X94770000Y-135950000D03*
X95270000Y-135950000D03*
X95770000Y-135950000D03*
X96270000Y-135950000D03*
X96770000Y-135950000D03*
X97270000Y-135950000D03*
X97770000Y-135950000D03*
X98270000Y-135950000D03*
X98770000Y-135950000D03*
X99270000Y-135950000D03*
%TD*%
D64*
%TO.C,C16*%
X88403901Y-68784203D03*
X91353901Y-68784203D03*
%TD*%
D69*
%TO.C,D2*%
X102227332Y-59654309D03*
X102227332Y-55654309D03*
%TD*%
D87*
%TO.C,D5*%
X103347036Y-140128114D03*
X103347036Y-142028114D03*
X105222036Y-141078114D03*
%TD*%
D13*
%TO.C,R24*%
X112235416Y-70385634D03*
X112235416Y-69425634D03*
%TD*%
D39*
%TO.C,R66*%
X96169763Y-124492924D03*
X97189763Y-124492924D03*
%TD*%
D88*
%TO.C,R56*%
X61947031Y-121823550D03*
X61947031Y-119823550D03*
%TD*%
M02*
