%TF.GenerationSoftware,KiCad,Pcbnew,9.0.6*%
%TF.CreationDate,2025-12-30T19:21:25-08:00*%
%TF.ProjectId,Electrode_FlexPCB,456c6563-7472-46f6-9465-5f466c657850,rev?*%
%TF.SameCoordinates,Original*%
%TF.FileFunction,Legend,Top*%
%TF.FilePolarity,Positive*%
%FSLAX46Y46*%
G04 Gerber Fmt 4.6, Leading zero omitted, Abs format (unit mm)*
G04 Created by KiCad (PCBNEW 9.0.6) date 2025-12-30 19:21:25*
%MOMM*%
%LPD*%
G01*
G04 APERTURE LIST*
%ADD10C,0.100000*%
G04 APERTURE END LIST*
D10*
X130803119Y-92323776D02*
X130604391Y-91777539D01*
X130251161Y-92175880D02*
X130509980Y-91209954D01*
X130509980Y-91209954D02*
X130877952Y-91308552D01*
X130877952Y-91308552D02*
X130957620Y-91379198D01*
X130957620Y-91379198D02*
X130991292Y-91437519D01*
X130991292Y-91437519D02*
X131012639Y-91541836D01*
X131012639Y-91541836D02*
X130975665Y-91679826D01*
X130975665Y-91679826D02*
X130905019Y-91759494D01*
X130905019Y-91759494D02*
X130846698Y-91793166D01*
X130846698Y-91793166D02*
X130742380Y-91814513D01*
X130742380Y-91814513D02*
X130374408Y-91715915D01*
X131352659Y-91928738D02*
X131674634Y-92015011D01*
X131677052Y-92557946D02*
X131217087Y-92434699D01*
X131217087Y-92434699D02*
X131475906Y-91468773D01*
X131475906Y-91468773D02*
X131935871Y-91592020D01*
X132548567Y-92249180D02*
X132226592Y-92162907D01*
X132091020Y-92668868D02*
X132349839Y-91702943D01*
X132349839Y-91702943D02*
X132809804Y-91826190D01*
X133315765Y-91961762D02*
X133254141Y-92191744D01*
X133048808Y-92038128D02*
X133254141Y-92191744D01*
X133254141Y-92191744D02*
X133508773Y-92161375D01*
X133066853Y-92338756D02*
X133254141Y-92191744D01*
X133254141Y-92191744D02*
X133342832Y-92412704D01*
X134051709Y-92158957D02*
X133990085Y-92388940D01*
X133784752Y-92235323D02*
X133990085Y-92388940D01*
X133990085Y-92388940D02*
X134244717Y-92358570D01*
X133802797Y-92535951D02*
X133990085Y-92388940D01*
X133990085Y-92388940D02*
X134078776Y-92609900D01*
X90106666Y-85047419D02*
X89773333Y-84571228D01*
X89535238Y-85047419D02*
X89535238Y-84047419D01*
X89535238Y-84047419D02*
X89916190Y-84047419D01*
X89916190Y-84047419D02*
X90011428Y-84095038D01*
X90011428Y-84095038D02*
X90059047Y-84142657D01*
X90059047Y-84142657D02*
X90106666Y-84237895D01*
X90106666Y-84237895D02*
X90106666Y-84380752D01*
X90106666Y-84380752D02*
X90059047Y-84475990D01*
X90059047Y-84475990D02*
X90011428Y-84523609D01*
X90011428Y-84523609D02*
X89916190Y-84571228D01*
X89916190Y-84571228D02*
X89535238Y-84571228D01*
X90535238Y-84523609D02*
X90868571Y-84523609D01*
X91011428Y-85047419D02*
X90535238Y-85047419D01*
X90535238Y-85047419D02*
X90535238Y-84047419D01*
X90535238Y-84047419D02*
X91011428Y-84047419D01*
X91773333Y-84523609D02*
X91440000Y-84523609D01*
X91440000Y-85047419D02*
X91440000Y-84047419D01*
X91440000Y-84047419D02*
X91916190Y-84047419D01*
X92440000Y-84047419D02*
X92440000Y-84285514D01*
X92201905Y-84190276D02*
X92440000Y-84285514D01*
X92440000Y-84285514D02*
X92678095Y-84190276D01*
X92297143Y-84475990D02*
X92440000Y-84285514D01*
X92440000Y-84285514D02*
X92582857Y-84475990D01*
X93201905Y-84047419D02*
X93201905Y-84285514D01*
X92963810Y-84190276D02*
X93201905Y-84285514D01*
X93201905Y-84285514D02*
X93440000Y-84190276D01*
X93059048Y-84475990D02*
X93201905Y-84285514D01*
X93201905Y-84285514D02*
X93344762Y-84475990D01*
M02*
