%TF.GenerationSoftware,KiCad,Pcbnew,9.0.6*%
%TF.CreationDate,2025-12-30T19:21:25-08:00*%
%TF.ProjectId,Electrode_FlexPCB,456c6563-7472-46f6-9465-5f466c657850,rev?*%
%TF.SameCoordinates,Original*%
%TF.FileFunction,Legend,Bot*%
%TF.FilePolarity,Positive*%
%FSLAX46Y46*%
G04 Gerber Fmt 4.6, Leading zero omitted, Abs format (unit mm)*
G04 Created by KiCad (PCBNEW 9.0.6) date 2025-12-30 19:21:25*
%MOMM*%
%LPD*%
G01*
G04 APERTURE LIST*
%ADD10C,0.150000*%
%ADD11C,0.120000*%
G04 APERTURE END LIST*
D10*
X125793333Y-136084819D02*
X126126666Y-135608628D01*
X126364761Y-136084819D02*
X126364761Y-135084819D01*
X126364761Y-135084819D02*
X125983809Y-135084819D01*
X125983809Y-135084819D02*
X125888571Y-135132438D01*
X125888571Y-135132438D02*
X125840952Y-135180057D01*
X125840952Y-135180057D02*
X125793333Y-135275295D01*
X125793333Y-135275295D02*
X125793333Y-135418152D01*
X125793333Y-135418152D02*
X125840952Y-135513390D01*
X125840952Y-135513390D02*
X125888571Y-135561009D01*
X125888571Y-135561009D02*
X125983809Y-135608628D01*
X125983809Y-135608628D02*
X126364761Y-135608628D01*
X125364761Y-135561009D02*
X125031428Y-135561009D01*
X124888571Y-136084819D02*
X125364761Y-136084819D01*
X125364761Y-136084819D02*
X125364761Y-135084819D01*
X125364761Y-135084819D02*
X124888571Y-135084819D01*
X124126666Y-135561009D02*
X124459999Y-135561009D01*
X124459999Y-136084819D02*
X124459999Y-135084819D01*
X124459999Y-135084819D02*
X123983809Y-135084819D01*
X123459999Y-135084819D02*
X123459999Y-135322914D01*
X123698094Y-135227676D02*
X123459999Y-135322914D01*
X123459999Y-135322914D02*
X123221904Y-135227676D01*
X123602856Y-135513390D02*
X123459999Y-135322914D01*
X123459999Y-135322914D02*
X123317142Y-135513390D01*
X122698094Y-135084819D02*
X122698094Y-135322914D01*
X122936189Y-135227676D02*
X122698094Y-135322914D01*
X122698094Y-135322914D02*
X122459999Y-135227676D01*
X122840951Y-135513390D02*
X122698094Y-135322914D01*
X122698094Y-135322914D02*
X122555237Y-135513390D01*
D11*
%TO.C,REF\u002A\u002A*%
X121360000Y-117130000D02*
X121360000Y-118330000D01*
X121360000Y-121530000D02*
X121360000Y-128030000D01*
X121360000Y-128030000D02*
X119360000Y-128030000D01*
X121360000Y-130630000D02*
X119360000Y-130630000D01*
X121360000Y-130630000D02*
X121360000Y-131830000D01*
X121360000Y-131830000D02*
X121860000Y-131830000D01*
X121860000Y-131830000D02*
X121860000Y-134330000D01*
X121860000Y-134330000D02*
X127060000Y-134330000D01*
X127060000Y-131830000D02*
X127560000Y-131830000D01*
X127060000Y-134330000D02*
X127060000Y-131830000D01*
X127560000Y-117130000D02*
X121360000Y-117130000D01*
X127560000Y-126030000D02*
X127560000Y-117130000D01*
X127560000Y-131830000D02*
X127560000Y-128630000D01*
%TD*%
M02*
