M48
; DRILL file {KiCad 9.0.6} date 2025-12-30T18:30:54-0800
; FORMAT={-:-/ absolute / metric / decimal}
; #@! TF.CreationDate,2025-12-30T18:30:54-08:00
; #@! TF.GenerationSoftware,Kicad,Pcbnew,9.0.6
; #@! TF.FileFunction,Plated,1,4,PTH
FMAT,2
METRIC
; #@! TA.AperFunction,Plated,PTH,ViaDrill
T1C0.200
; #@! TA.AperFunction,Plated,PTH,ViaDrill
T2C0.300
; #@! TA.AperFunction,Plated,PTH,ComponentDrill
T3C0.300
; #@! TA.AperFunction,Plated,PTH,ComponentDrill
T4C0.500
; #@! TA.AperFunction,Plated,PTH,ComponentDrill
T5C0.600
; #@! TA.AperFunction,Plated,PTH,ComponentDrill
T6C0.800
; #@! TA.AperFunction,Plated,PTH,ComponentDrill
T7C1.000
%
G90
G05
T1
X82.55Y-76.2
X89.81Y-84.557
X91.44Y-74.93
X92.71Y-77.47
X92.71Y-81.28
X94.734Y-76.972
X96.27Y-138.815
X96.77Y-138.815
X97.063Y-122.456
X97.721Y-122.432
X98.665Y-74.498
X99.06Y-115.57
X102.87Y-80.01
X105.234Y-133.551
X107.24Y-129.56
X107.685Y-73.34
X107.74Y-129.81
X108.49Y-128.06
X108.49Y-133.56
X109.49Y-133.56
X109.74Y-134.06
X109.99Y-133.56
X110.092Y-135.775
X110.24Y-134.06
X110.365Y-120.525
X110.49Y-128.06
X110.49Y-133.56
X110.99Y-133.56
X111.073Y-135.787
X111.49Y-133.56
X111.99Y-133.56
X111.998Y-128.047
X112.24Y-134.06
X112.49Y-133.56
X113.74Y-129.06
X115.402Y-120.65
X115.57Y-115.57
X116.84Y-116.84
T2
X65.803Y-131.047
X66.04Y-64.77
X66.587Y-131.83
X67.069Y-132.311
X68.095Y-126.292
X68.122Y-127.309
X71.12Y-115.57
X71.12Y-116.84
X71.12Y-133.35
X71.12Y-134.62
X71.12Y-135.89
X71.12Y-143.51
X71.773Y-139.326
X72.39Y-58.42
X73.66Y-135.89
X73.66Y-143.51
X74.93Y-62.23
X74.93Y-121.92
X74.93Y-123.19
X74.93Y-124.46
X76.2Y-74.93
X76.2Y-143.51
X77.47Y-72.39
X77.47Y-74.93
X78.74Y-60.96
X79.815Y-142.392
X79.875Y-133.54
X80.01Y-73.66
X81.28Y-76.2
X82.455Y-78.335
X83.154Y-140.465
X83.82Y-54.61
X83.82Y-73.66
X83.82Y-107.95
X84.062Y-140.465
X84.277Y-61.297
X85.09Y-93.98
X85.771Y-137.393
X86.185Y-75.25
X86.36Y-64.77
X86.36Y-67.31
X86.36Y-93.98
X86.454Y-78.646
X87.63Y-91.44
X88.265Y-75.233
X88.9Y-72.39
X89.4Y-74.16
X89.785Y-75.233
X90.17Y-82.55
X90.87Y-125.408
X91.963Y-125.444
X92.116Y-78.283
X92.506Y-68.784
X92.71Y-129.1
X93.608Y-99.54
X93.98Y-64.77
X93.98Y-74.93
X93.98Y-115.57
X93.98Y-119.38
X93.98Y-129.1
X94.029Y-131.181
X94.12Y-140.332
X94.743Y-79.247
X95.591Y-128.546
X95.604Y-136.34
X96.301Y-128.501
X96.378Y-74.93
X96.52Y-80.01
X96.52Y-81.28
X96.52Y-105.41
X97.155Y-84.455
X97.258Y-70.396
X97.413Y-136.316
X97.79Y-78.74
X97.79Y-104.14
X97.79Y-107.95
X97.86Y-48.33
X98.398Y-124.514
X98.426Y-125.394
X98.942Y-140.202
X99.06Y-60.96
X99.165Y-78.74
X99.713Y-122.583
X100.32Y-76.076
X101.043Y-113.035
X101.176Y-116.116
X101.6Y-77.47
X101.6Y-104.14
X101.6Y-110.49
X101.6Y-133.35
X101.997Y-81.59
X102.87Y-70.094
X102.87Y-83.82
X102.87Y-85.09
X102.87Y-120.65
X102.87Y-125.73
X103.449Y-128.924
X104.14Y-55.88
X104.14Y-71.12
X104.14Y-74.93
X104.14Y-76.2
X104.14Y-88.9
X104.14Y-120.65
X104.14Y-137.16
X104.771Y-111.525
X105.41Y-113.03
X105.41Y-132.08
X106.474Y-70.38
X106.663Y-123.207
X107.95Y-71.12
X107.95Y-115.57
X108.019Y-137.647
X108.086Y-88.764
X108.963Y-137.637
X109.22Y-76.2
X109.22Y-121.92
X109.22Y-129.54
X109.22Y-130.81
X109.22Y-132.08
X109.22Y-132.08
X110.49Y-72.39
X110.49Y-129.54
X110.49Y-130.81
X110.49Y-130.81
X110.49Y-130.81
X110.49Y-130.81
X110.49Y-130.81
X110.49Y-130.81
X110.49Y-130.81
X110.49Y-130.81
X110.49Y-130.81
X110.49Y-130.81
X110.49Y-130.81
X110.49Y-130.81
X110.49Y-130.81
X110.49Y-130.81
X110.49Y-132.08
X110.49Y-138.43
X111.76Y-129.54
X111.76Y-130.81
X111.76Y-132.08
X111.76Y-140.97
X112.769Y-124.056
X113.03Y-72.39
X113.03Y-119.38
X114.3Y-81.28
X114.3Y-144.78
X115.57Y-69.85
X115.57Y-81.28
X115.57Y-114.3
X115.605Y-72.425
X116.34Y-120.589
X117.085Y-130.566
X118.023Y-130.665
X119.006Y-130.68
X119.35Y-128.252
X119.38Y-121.92
X119.38Y-137.16
X120.013Y-130.68
X120.217Y-128.301
X120.65Y-72.39
X120.65Y-134.62
X121.129Y-130.706
X121.301Y-127.815
X121.92Y-81.28
X121.92Y-119.38
X121.92Y-120.65
X122.256Y-130.693
X122.348Y-128.376
X122.772Y-145.121
X122.8Y-144.027
X122.821Y-142.8
X122.849Y-140.401
X122.849Y-141.604
X122.865Y-136.55
X122.881Y-137.899
X122.898Y-135.429
X122.914Y-139.166
X123.19Y-68.58
X123.19Y-81.28
X123.19Y-115.57
X123.225Y-72.425
X123.309Y-130.706
X123.363Y-128.401
X123.693Y-131.499
X123.7Y-133.325
X123.705Y-132.279
X123.742Y-135.38
X123.751Y-134.331
X124.503Y-128.524
X125.642Y-128.822
X126.509Y-129.614
X126.93Y-131.72
X126.955Y-130.655
X127.005Y-132.909
X127.005Y-135.262
X127.054Y-134.147
T3
X78.625Y-138.75
X78.625Y-139.75
X79.375Y-139.25
X80.125Y-138.75
X80.125Y-139.75
X111.9Y-76.2
X111.9Y-77.4
X113.0Y-76.2
X113.0Y-77.4
X114.3Y-76.2
X114.3Y-77.4
X115.5Y-76.2
X115.5Y-77.4
X119.52Y-76.2
X119.52Y-77.4
X120.62Y-76.2
X120.62Y-77.4
X121.92Y-76.2
X121.92Y-77.4
X123.12Y-76.2
X123.12Y-77.4
T4
X124.46Y-124.46
T6
X65.919Y-89.918
X68.419Y-89.918
X68.58Y-139.7
X68.58Y-141.7
X73.967Y-89.425
X76.467Y-89.425
T7
X66.02Y-81.26
X66.02Y-83.8
X68.56Y-81.26
X68.56Y-83.8
X68.58Y-48.26
X68.58Y-50.8
X68.58Y-53.34
X76.735Y-81.198
X76.735Y-83.738
X79.275Y-81.198
X79.275Y-83.738
X83.668Y-123.169
X83.668Y-125.709
X86.208Y-123.169
X86.208Y-125.709
T5
G00X92.2Y-138.99
M15
G01X92.2Y-139.79
M16
G05
G00X92.2Y-142.79
M15
G01X92.2Y-143.99
M16
G05
G00X100.84Y-138.99
M15
G01X100.84Y-139.79
M16
G05
G00X100.84Y-142.79
M15
G01X100.84Y-143.99
M16
G05
M30
